<svg height="705" width="886" viewBox="576 -62 886 705" style="background-color:transparent;" preserveAspectRatio="xMinYMin meet" xmlns:xlink="http://www.w3.org/1999/xlink" xmlns="http://www.w3.org/2000/svg"><defs><style type="text/css">.svg-txt-center tspan {text-anchor: middle;}.svg-txt-right tspan {text-anchor: end;}</style></defs><g transform="translate(0,0)"><path style="fill:none;stroke:#333333;stroke-width:3.0;;stroke-linejoin: round; " d="m662,378l318,0l2,247l-320,0"/><path style="fill:none;stroke:#333333;stroke-width:3.0;;stroke-linejoin: round; " d="m637,378l27,0l2,247l-27,0z"/><text transform="matrix(0,-1,1,0,257.99999999999994,1177)" style="font-weight:bold; font-size: 12px; text-anchor: start; font-family: arial,helvetica,sans-serif; fill: #333333;" class="" y="395" x="647">App stack 1</text></g><g transform="translate(0,0)"><g transform="matrix(1,0,0,1,716,422)"><path style="fill:none;stroke:#333333;stroke-width:3.0;;" d="m218.90497482976616,29.26881934366494c0,4.810975287874417 -9.458675852232123,8.710332960793401 -21.128663475357424,8.710332960793401l-176.58239686728825,0c-11.669987623125301,0 -21.128663475357424,-3.8993576729189847 -21.128663475357424,-8.710332960793401l0,-18.043706595790123c0,-4.810975287874417 9.458675852232123,-8.710332960793401 21.128663475357424,-8.710332960793401l179.60007064859664,-2.488593724047799c11.67117490461303,0 21.129850756845155,5.143889067438901 21.129850756845155,9.954864355313317l-3.0189006388456843,19.287748531187916z"/></g><text style="font-weight:bold; font-size: 12px; text-anchor: middle; font-family: arial,helvetica,sans-serif; fill: #333333;" class="svg-txt-center" y="445" x="827">Front end service (N containers)</text></g><g transform="translate(0,0)"><g transform="matrix(1,0,0,1,716,553)"><path style="fill:none;stroke:#333333;stroke-width:3.0;;" d="m218.90497482976616,29.26881934366494c0,4.810975287874417 -9.458675852232123,8.710332960793401 -21.128663475357424,8.710332960793401l-176.58239686728825,0c-11.669987623125301,0 -21.128663475357424,-3.8993576729189847 -21.128663475357424,-8.710332960793401l0,-18.043706595790123c0,-4.810975287874417 9.458675852232123,-8.710332960793401 21.128663475357424,-8.710332960793401l179.60007064859664,-2.488593724047799c11.67117490461303,0 21.129850756845155,5.143889067438901 21.129850756845155,9.954864355313317l-3.0189006388456843,19.287748531187916z"/></g><text style="font-weight:bold; font-size: 12px; text-anchor: middle; font-family: arial,helvetica,sans-serif; fill: #333333;" class="svg-txt-center" y="576" x="827">Back end service (M containers)</text></g><g transform="translate(0,0)"><path style="fill:none;stroke:#333333;stroke-width:2;;" d="M827,462 C827,505.5 827,505.5  827,549"/><polyline style="fill:#ffffff;stroke:#333333;stroke-width:2;fill-opacity:0;" points="817,531 827,549 837,531"/><text style="font-weight:Normal; font-size: 12px; text-anchor: middle; font-family: sans-serif; fill: #333333;" class="" y="535" x="842"/><text style="font-weight:Normal; font-size: 12px; text-anchor: start; font-family: sans-serif; fill: #333333;" class="" y="505" x="827"/><text style="font-weight:Normal; font-size: 12px; text-anchor: middle; font-family: sans-serif; fill: #333333;" class="" y="476" x="842"/></g><g transform="translate(0,0)"><rect style="fill: #ffffff;fill-opacity: 1;stroke-opacity:0;stroke-width: 1;stroke:%stroke%;" rx="4" height="15" width="176" y="494" x="692"/><text style="font-weight:Normal; font-size: 12px; text-anchor: start; font-family: arial,helvetica,sans-serif; fill: #333333;" class="" y="494" x="692"><tspan alignment-baseline="before-edge" x="692">Rancher discovery service (DNS)</tspan></text></g><g transform="translate(0,0)"><path style="fill:none;stroke:#333333;stroke-width:3.0;;stroke-linejoin: round; " d="m1074,132l371,0l2,175l-373,0"/><path style="fill:none;stroke:#333333;stroke-width:3.0;;stroke-linejoin: round; " d="m1049,132l27,0l2,175l-27,0z"/><text transform="matrix(0,-1,1,0,916,1332)" style="font-weight:bold; font-size: 12px; text-anchor: start; font-family: arial,helvetica,sans-serif; fill: #333333;" class="" y="149" x="1059">Load Balancer stack</text></g><g transform="translate(0,0)"><g transform="matrix(1,0,0,1,1100,177)"><path style="fill:none;stroke:#333333;stroke-width:3.0;;" d="m296.80359199891717,63.92926330326816c0,10.508182865620437 -12.824601042891302,19.025200940680325 -28.647422099471104,19.025200940680325l-239.4202768335755,0c-15.822821056579802,0 -28.647422099471104,-8.517018075059887 -28.647422099471104,-19.025200940680325l0,-39.41125388027842c0,-10.508182865620437 12.824601042891302,-19.025200940680325 28.647422099471104,-19.025200940680325l243.51180750102517,-5.435612607788613c15.824430839137486,0 28.649031882028787,11.235336647300759 28.649031882028787,21.743519512921193l-4.093194109425905,42.128503370752554z"/></g><text style="font-weight:bold; font-size: 12px; text-anchor: middle; font-family: arial,helvetica,sans-serif; fill: #333333;" class="svg-txt-center" y="222" x="1250">Load balancer service (one container per host)</text></g><g transform="translate(0,0)"><path style="fill:none;stroke:rgb(0,178,44);stroke-width:2;;" d="M1250,262 C1250,340 827,340  827,418"/><polyline style="fill:#ffffff;stroke:rgb(0,178,44);stroke-width:2;fill-opacity:0;" points="821,398 827,418 841,403"/><text style="font-weight:Normal; font-size: 12px; text-anchor: middle; font-family: sans-serif; fill: #333333;" class="" y="428" x="846"/><text style="font-weight:Normal; font-size: 12px; text-anchor: start; font-family: sans-serif; fill: #333333;" class="" y="340" x="1038"/><text style="font-weight:Normal; font-size: 12px; text-anchor: middle; font-family: sans-serif; fill: #333333;" class="" y="280" x="1242"/></g><g transform="translate(0,0)"><path style="fill:none;stroke:#333333;stroke-width:3.0;;stroke-linejoin: round; " d="m1122,381l318,0l2,247l-320,0"/><path style="fill:none;stroke:#333333;stroke-width:3.0;;stroke-linejoin: round; " d="m1097,381l27,0l2,247l-27,0z"/><text transform="matrix(0,-1,1,0,715,1640)" style="font-weight:bold; font-size: 12px; text-anchor: start; font-family: arial,helvetica,sans-serif; fill: #333333;" class="" y="398" x="1107">App stack 2</text></g><g transform="translate(0,0)"><g transform="matrix(1,0,0,1,1176,425)"><path style="fill:none;stroke:#333333;stroke-width:3.0;;" d="m218.90497482976616,29.26881934366494c0,4.810975287874417 -9.458675852232123,8.710332960793401 -21.128663475357424,8.710332960793401l-176.58239686728825,0c-11.669987623125301,0 -21.128663475357424,-3.8993576729189847 -21.128663475357424,-8.710332960793401l0,-18.043706595790123c0,-4.810975287874417 9.458675852232123,-8.710332960793401 21.128663475357424,-8.710332960793401l179.60007064859664,-2.488593724047799c11.67117490461303,0 21.129850756845155,5.143889067438901 21.129850756845155,9.954864355313317l-3.0189006388456843,19.287748531187916z"/></g><text style="font-weight:bold; font-size: 12px; text-anchor: middle; font-family: arial,helvetica,sans-serif; fill: #333333;" class="svg-txt-center" y="448" x="1287">Front end service (X containers)</text></g><g transform="translate(0,0)"><g transform="matrix(1,0,0,1,1176,556)"><path style="fill:none;stroke:#333333;stroke-width:3.0;;" d="m216.93285793940794,29.26881934366494c0,4.810975287874417 -9.373462556266068,8.710332960793401 -20.93831515575961,8.710332960793401l-174.99156446307845,0c-11.564852599493543,0 -20.93831515575961,-3.8993576729189847 -20.93831515575961,-8.710332960793401l0,-18.043706595790123c0,-4.810975287874417 9.373462556266068,-8.710332960793401 20.93831515575961,-8.710332960793401l177.98205199410478,-2.488593724047799c11.566029184751653,0 20.93949174101772,5.143889067438901 20.93949174101772,9.954864355313317l-2.9917033357930203,19.287748531187916z"/></g><text style="font-weight:bold; font-size: 12px; text-anchor: middle; font-family: arial,helvetica,sans-serif; fill: #333333;" class="svg-txt-center" y="579" x="1286">Back end service (Y containers)</text></g><g transform="translate(0,0)"><path style="fill:none;stroke:#333333;stroke-width:2;;" d="M1287,465 C1287,508.5 1286,508.5  1286,552"/><polyline style="fill:#ffffff;stroke:#333333;stroke-width:2;fill-opacity:0;" points="1276,534 1286,552 1296,534"/><text style="font-weight:Normal; font-size: 12px; text-anchor: middle; font-family: sans-serif; fill: #333333;" class="" y="538" x="1300"/><text style="font-weight:Normal; font-size: 12px; text-anchor: start; font-family: sans-serif; fill: #333333;" class="" y="508" x="1286"/><text style="font-weight:Normal; font-size: 12px; text-anchor: middle; font-family: sans-serif; fill: #333333;" class="" y="478" x="1301"/></g><g transform="translate(0,0)"><rect style="fill: #ffffff;fill-opacity: 1;stroke-opacity:0;stroke-width: 1;stroke:%stroke%;" rx="4" height="15" width="176" y="497" x="1151"/><text style="font-weight:Normal; font-size: 12px; text-anchor: start; font-family: arial,helvetica,sans-serif; fill: #333333;" class="" y="497" x="1151"><tspan alignment-baseline="before-edge" x="1151">Rancher discovery service (DNS)</tspan></text></g><g transform="translate(0,0)"><path style="fill:none;stroke:rgb(229,0,0);stroke-width:2;;" d="M1250,262 C1250,341.5 1287,341.5  1287,421"/><polyline style="fill:#ffffff;stroke:rgb(229,0,0);stroke-width:2;fill-opacity:0;" points="1276,403 1287,421 1296,403"/><text style="font-weight:Normal; font-size: 12px; text-anchor: middle; font-family: sans-serif; fill: #333333;" class="" y="404" x="1297"/><text style="font-weight:Normal; font-size: 12px; text-anchor: start; font-family: sans-serif; fill: #333333;" class="" y="341" x="1268"/><text style="font-weight:Normal; font-size: 12px; text-anchor: middle; font-family: sans-serif; fill: #333333;" class="" y="271" x="1267"/></g><g transform="translate(0,0)"><path style="fill:none;stroke:rgb(229,0,0);stroke-width:2;;" d="M998,138 C998,138 1193.807561072208,33.953742775057925 1258,94 1277.329542261371,112.08104951382612 1250,173 1250,173"/><polyline style="fill:#ffffff;stroke:rgb(229,0,0);stroke-width:2;fill-opacity:0;" points="1247,153 1250,173 1266,161"/><text style="font-weight:Normal; font-size: 12px; text-anchor: middle; font-family: sans-serif; fill: #333333;" class="" y="160" x="1265"/><text style="font-weight:Normal; font-size: 12px; text-anchor: start; font-family: sans-serif; fill: #333333;" class="" y="82" x="1258"/><text style="font-weight:Normal; font-size: 12px; text-anchor: middle; font-family: sans-serif; fill: #333333;" class="" y="121" x="1008"/></g><g transform="translate(0,0)"><rect style="fill: #ffffff;fill-opacity: 1;stroke-opacity:0;stroke-width: 1;stroke:%stroke%;" rx="4" height="15" width="43" y="84" x="1240"/><text style="font-weight:Normal; font-size: 12px; text-anchor: start; font-family: arial,helvetica,sans-serif; fill: #333333;" class="" y="84" x="1240"><tspan alignment-baseline="before-edge" x="1240">Host IPs</tspan></text></g><g transform="translate(0,0)"><g transform="matrix(1,0,0,1,892,99)"><path style="fill:none;stroke:#333333;stroke-width:3.0;;stroke-linejoin: round; " d="m2.6905216000000003,20.500413714285713l50.695008,30.93873142857143l50.32352,-29.269554285714282l-57.497648000000005,-23.740879999999997z"/><path style="fill:none;stroke:#333333;stroke-width:3.0;;stroke-linejoin: round; " d="m2.7386944000000004,20.419984l-3.5067552,16.732811428571427l52.269152000000005,38.65924571428571l1.37206576,-25.283897142857143"/><path style="fill:none;stroke:#333333;stroke-width:3.0;;stroke-linejoin: round; " d="m103.12806400000001,22.38894857142857l-2.2165728000000002,28.570571428571427l-49.15976,24.58469714285714l1.06152176,-24.54713142857143"/><path style="fill:#fafafa;stroke:#333333;stroke-width:3.0;;stroke-linecap: butt; stroke-linejoin: round; stroke-miterlimit: 4; " d="m41.349152000000004,4.762116571428572l13.453315199999999,0.7395907428571428l0.70806112,9.609483428571428l-4.9564736,-3.6962274285714285l-9.912968000000001,6.652844571428571l-7.0806944000000005,-4.435229714285714l12.037168,-5.913256z"/><path style="fill:#fafafa;stroke:#333333;stroke-width:3.0;;stroke-linecap: butt; stroke-linejoin: round; stroke-miterlimit: 4; " d="m58.260176,43.81964571428571l-13.453315199999999,-0.7395907428571428l-0.70806944,-9.608897142857144l4.9564736,3.6950765714285714l9.912968000000001,-6.65228l7.080673600000001,4.435229714285714l-12.037168,5.913256z"/><path style="fill:#fafafa;stroke:#333333;stroke-width:3.0;;stroke-linecap: butt; stroke-linejoin: round; stroke-miterlimit: 4; " d="m40.17,33.907291428571426l-13.453315199999999,-0.7395907428571428l-0.70806528,-9.608918857142857l4.9564736,3.6950765714285714l9.912968000000001,-6.65228l7.080673600000001,4.435229714285714l-12.037168,5.913256z"/><path style="fill:#fafafa;stroke:#333333;stroke-width:3.0;;stroke-linecap: butt; stroke-linejoin: round; stroke-miterlimit: 4; " d="m58.369168,15.049454857142857l13.453315199999999,0.7390131428571428l0.70805696,9.609483428571428l-4.9564736,-3.6956411428571427l-9.9129472,6.65228l-7.0806944000000005,-4.434665142857142l12.037168,-5.913842285714285z"/></g><text style="font-weight:bold; font-size: 12px; text-anchor: middle; font-family: arial,helvetica,sans-serif; fill: #333333;" class="svg-txt-center" y="190" x="944">BigIP F5</text></g><g transform="translate(0,0)"><g transform="matrix(1,0,0,1,628,97)"><path style="fill:none;stroke:#333333;stroke-width:3.0;;" d="m16.170859130900197,4.831660333056859c6.036341414540395,-7.94097018357026 16.727542075711003,-5.1269687082356965 19.073195670523354,1.4872869475993864c2.3441012099051286,6.612082495265493 -1.4070885286629096,17.362104177317363 -11.255893227226986,16.37017710844192c-9.84881040586153,-0.9920478000181961 -13.600775195423688,-10.252971567329352 -7.817302443296369,-17.857464056041305z"/><path style="fill:none;stroke:#333333;stroke-width:3.0;;" d="m11.167954046611335,62.03902574724964l-11.098432314876586,-0.49644645900874074c0,0 -0.15513804228702077,-22.154889082407095 0,-25.62687528575665c0.15591081036215992,-3.472106934492309 3.283453883103087,-4.96048046237649 6.566131573752562,-4.96048046237649c3.2826788321089664,0 33.45119177455905,-1.6547410426006324 35.954332535290085,-1.1591397015911769c2.502341739087612,0.497050114722516 5.939367582056611,2.3176757474685785 6.096843333380389,7.110581383701068c0.15745292213396644,4.79459587223106 0.31260009609691203,25.298124384034665 0.31260009609691203,25.298124384034665l-10.317332726915508,0.6637798228672316"/><path style="fill:none;stroke:#333333;stroke-width:3.0;;" d="m11.481172813752154,44.67704230107503l0.15513575936803958,21.826621105256134l27.359004454440832,0.4957220721522105l-1.4070771140680036,-23.475929246432788"/></g><text style="font-weight:bold; font-size: 12px; text-anchor: middle; font-family: arial,helvetica,sans-serif; fill: #333333;" class="svg-txt-center" y="179" x="652">Service client</text></g><g transform="translate(0,0)"><path style="fill:none;stroke:rgb(0,178,44);stroke-width:2;;" d="M679,130 C679,130 762.3186288179651,186.27696100891723 809,183 839.3974050469475,180.8661485601467 888,137 888,137"/><polyline style="fill:#ffffff;stroke:rgb(0,178,44);stroke-width:2;fill-opacity:0;" points="881,155 888,137 868,141"/><text style="font-weight:Normal; font-size: 12px; text-anchor: middle; font-family: sans-serif; fill: #333333;" class="" y="131" x="869"/><text style="font-weight:Normal; font-size: 12px; text-anchor: start; font-family: sans-serif; fill: #333333;" class="" y="171" x="809"/><text style="font-weight:Normal; font-size: 12px; text-anchor: middle; font-family: sans-serif; fill: #333333;" class="" y="121" x="696"/></g><g transform="translate(0,0)"><path style="fill:none;stroke:rgb(229,0,0);stroke-width:2;;" d="M679,130 C679,130 767.830973811691,69.82356480643936 819,66 853.9295911842872,63.3899140651211 920,95 920,95"/><polyline style="fill:#ffffff;stroke:rgb(229,0,0);stroke-width:2;fill-opacity:0;" points="900,96 920,95 908,78"/><text style="font-weight:Normal; font-size: 12px; text-anchor: middle; font-family: sans-serif; fill: #333333;" class="" y="78" x="908"/><text style="font-weight:Normal; font-size: 12px; text-anchor: start; font-family: sans-serif; fill: #333333;" class="" y="54" x="819"/><text style="font-weight:Normal; font-size: 12px; text-anchor: middle; font-family: sans-serif; fill: #333333;" class="" y="111" x="684"/></g><g transform="translate(0,0)"><path style="fill:none;stroke:rgb(44,178,44);stroke-width:2;;" d="M998,115 C998,115 1060.1702696202447,23.316984013904786 1107,26 1175.2482370809896,29.910146601874754 1250,173 1250,173"/><polyline style="fill:#ffffff;stroke:rgb(44,178,44);stroke-width:2;fill-opacity:0;" points="1233,162 1250,173 1250,153"/><text style="font-weight:Normal; font-size: 12px; text-anchor: middle; font-family: sans-serif; fill: #333333;" class="" y="153" x="1248"/><text style="font-weight:Normal; font-size: 12px; text-anchor: start; font-family: sans-serif; fill: #333333;" class="" y="14" x="1107"/><text style="font-weight:Normal; font-size: 12px; text-anchor: middle; font-family: sans-serif; fill: #333333;" class="" y="95" x="998"/></g><g transform="translate(0,0)"><rect style="fill: #ffffff;fill-opacity: 1;stroke-opacity:0;stroke-width: 1;stroke:%stroke%;" rx="4" height="15" width="141" y="321" x="967"/><text style="font-weight:Normal; font-size: 12px; text-anchor: start; font-family: arial,helvetica,sans-serif; fill: #333333;" class="" y="321" x="967"><tspan alignment-baseline="before-edge" x="967">Rancher discovery service</tspan></text></g><g transform="translate(0,0)"><rect style="fill: #ffffff;fill-opacity: 1;stroke-opacity:0;stroke-width: 1;stroke:%stroke%;" rx="4" height="15" width="43" y="28" x="1045"/><text style="font-weight:Normal; font-size: 12px; text-anchor: start; font-family: arial,helvetica,sans-serif; fill: #333333;" class="" y="28" x="1045"><tspan alignment-baseline="before-edge" x="1045">Host IPs</tspan></text></g><g transform="translate(0,0)"><g transform="matrix(1,0,0,1,739,-52)"><path style="fill:none;stroke:#333333;stroke-width:3.0;;" d="m0,0.20411812961443807l337.35081687654485,-1.2278761279737491l2.9787742115641116,79.63550451189501l-338.6779146412349,-0.24526168990976213z"/><path style="fill:#333333;stroke:none;stroke-width:3.0;;stroke: none; " d="m149.248274,-6.1981l38.0093,-2.40741l-0.603966,2.40741l3.76254,0.531494l-2.13063,2.4458l-1.31318,1.85211l3.61304,0l-2.87453,2.84827l2.21614,2.70691l-40.9795,2.25l0.300789,-2.40662l-2.71546,-0.902466l3.31823,-1.50378l-3.85104,-3.49121l3.36488,-1.28223l-2.0523,-1.42377l1.93569,-1.62451z"/></g><text style="font-weight:Normal; font-size: 12px; text-anchor: start; font-family: arial,helvetica,sans-serif; fill: #333333;" class="" y="-26" x="754"><tspan x="754">Proxypass rewrite:</tspan><tspan dy="17" x="754">/app1 := app1.internal.com/feature1 rancher</tspan><tspan>_pool</tspan><tspan dy="17" x="754">/app2 := app2.internal.com/feature2 rancher</tspan><tspan>_pool</tspan></text></g><g transform="translate(0,0)"><rect style="fill: #ffffff;fill-opacity: 1;stroke-opacity:0;stroke-width: 1;stroke:%stroke%;" rx="4" height="15" width="136" y="48" x="787"/><text style="font-weight:Normal; font-size: 12px; text-anchor: start; font-family: arial,helvetica,sans-serif; fill: #333333;" class="" y="48" x="787"><tspan alignment-baseline="before-edge" x="787">www.company,com/app1</tspan></text></g><g transform="translate(0,0)"><rect style="fill: #ffffff;fill-opacity: 1;stroke-opacity:0;stroke-width: 1;stroke:%stroke%;" rx="4" height="15" width="136" y="165" x="805"/><text style="font-weight:Normal; font-size: 12px; text-anchor: start; font-family: arial,helvetica,sans-serif; fill: #333333;" class="" y="165" x="805"><tspan alignment-baseline="before-edge" x="805">www.company.com/app2</tspan></text></g><g transform="translate(0,0)"><path style="fill:none;stroke:#333333;stroke-width:2;;" d="M907,28 C907,61.5 944,61.5  944,95"/><polyline style="fill:#ffffff;stroke:#333333;stroke-width:2;fill-opacity:0;" points="933,78 944,95 953,77"/><text style="font-weight:Normal; font-size: 12px; text-anchor: middle; font-family: sans-serif; fill: #333333;" class="" y="75" x="949"/><text style="font-weight:Normal; font-size: 12px; text-anchor: start; font-family: sans-serif; fill: #333333;" class="" y="61" x="925"/><text style="font-weight:Normal; font-size: 12px; text-anchor: middle; font-family: sans-serif; fill: #333333;" class="" y="32" x="926"/></g><text style="font-weight:Normal; font-size: 16px; text-anchor: end; font-family: Arial; fill: #ccc;" y="628" x="1447">www.sketchboard.io</text></svg>